<svg xmlns="http://www.w3.org/2000/svg" viewBox="0 0 248.6 292.83"><defs><style>.cls-1{fill:#ccaa87;}.cls-2{fill:#341e1c;}.cls-3{fill:#fff;}.cls-4{fill:#c69c6d;}.cls-5{fill:none;stroke:#000;stroke-miterlimit:10;stroke-width:3px;}</style></defs><g id="Layer_1" data-name="Layer 1"><g id="char"><path id="face" class="cls-1" d="M106.51,109.43,125,187.79c-48.59-22.2-24.12,21.56-24.12,21.56,6.42,18.12,23.21,15.05,23.21,15.05,36.33,87.39,108.32,70.24,108.32,70.24,106.06-22.11,78.78-178.87,78.78-178.87C231.82-.38,106.51,109.43,106.51,109.43Z" transform="translate(-69.39 -3.17)"/><path id="hair" class="cls-2" d="M317.44,127.17c-.31,23-17.87-13-20.84-19.23a1.12,1.12,0,0,0-1.37-.59c-71.83,22.29-74.46,7.21-72.13-.52a1.1,1.1,0,0,0-1.71-1.21c-61.31,45.43-75.82,17.6-78.8,8.15a1.14,1.14,0,0,0-.57-.67,1.16,1.16,0,0,0-1.57.49c-17.92,33.69-15.64,63-13,76.73a1.16,1.16,0,0,1-2.07.89c-10.5-14-25.62-6-29.75-3.45l-.13.07a1.13,1.13,0,0,1-1.48-.59C2.2-11.41,196.39,3.31,200,3.6l.1,0C331.57-4.86,317.72,124.39,317.45,127Z" transform="translate(-69.39 -3.17)"/><path id="ear_part" data-name="ear part" class="cls-1" d="M96.4,190.13l23.32,13a3.06,3.06,0,0,0,4.42-3.54l-3.75-12.71a3,3,0,0,0-1-1.51c-16.18-13.15-22.3-4.05-24.33.94A3.05,3.05,0,0,0,96.4,190.13Z" transform="translate(-69.39 -3.17)"/><path id="brow_L" data-name="brow L" class="cls-2" d="M305.44,156.58c1.65,2.08,7.73,10.13-4.42,1.91s-32.24-3.42-37.12-2.08a5,5,0,0,1-2.48,0c-5.67-1.29-6.7-3.79-6.43-5.84a4.68,4.68,0,0,1,3.55-3.84,54,54,0,0,1,46.16,9.13A4.39,4.39,0,0,1,305.44,156.58Z" transform="translate(-69.39 -3.17)"/><path id="brow_R" data-name="brow R" class="cls-2" d="M162.54,158.59c-1.63,2-7.71,10.11,4.45,1.88s32.24-3.39,37.12-2a5.2,5.2,0,0,0,2.48.06c5.62-1.3,6.72-3.78,6.45-5.83a4.68,4.68,0,0,0-3.54-3.85,54,54,0,0,0-46.17,9A4.22,4.22,0,0,0,162.54,158.59Z" transform="translate(-69.39 -3.17)"/><ellipse id="eye_L" data-name="eye L" class="cls-2" cx="272.57" cy="188.63" rx="6.41" ry="16.02" transform="translate(-71.07 -0.73) rotate(-0.51)"/><ellipse id="eye_R" data-name="eye R" class="cls-2" cx="203.62" cy="187.8" rx="16.02" ry="6.41" transform="translate(-58.57 383.53) rotate(-88.58)"/><path id="nose" class="cls-2" d="M238.65,234.85c19.8-5.77,1.76-31.41,1.76-31.41C249.72,231.46,238.65,234.85,238.65,234.85Z" transform="translate(-69.39 -3.17)"/><path id="mouth" class="cls-3" d="M247.54,262.5a17.81,17.81,0,0,1-6.79,3.63c-15.19,5.16-21.92-2.38-21.92-2.38-7.91-7-2.22-11.58-2.22-11.58,4-5.22,9.42.81,9.42.81,10.44,8,19.58,3.4,19.58,3.4C252.82,255.36,247.54,262.5,247.54,262.5Z" transform="translate(-69.39 -3.17)"/><g id="ear_line" data-name="ear line"><path class="cls-4" d="M120.08,211.1c.73,1,2.23-.22,1.49-1.2a117.2,117.2,0,0,0-12.32-14.37c-2.46-2.46-8.63-7.08-8.5-.33,0,1.24,1.92,1,1.89-.26,0-3.18,3-.21,4.15.82a65.2,65.2,0,0,1,6.09,6.35q3.78,4.35,7.26,9Z" transform="translate(-69.39 -3.17)"/></g></g></g><g id="glasses"><rect class="cls-5" x="106.2" y="181.89" width="53.04" height="33" rx="5.24"/><rect class="cls-5" x="191.05" y="181.89" width="53.04" height="33" rx="5.24"/><path class="cls-5" d="M229.8,191c7-2.51,17.69-4.81,27.83,0,.77.37,1.51.76,2.23,1.18" transform="translate(-69.39 -3.17)"/><path d="M127.27,193.63h46a1.5,1.5,0,0,0,0-3h-46a1.5,1.5,0,0,0,0,3Z" transform="translate(-69.39 -3.17)"/></g></svg>