<?xml version="1.0" encoding="utf-8"?>
<!-- Generator: Adobe Illustrator 24.2.3, SVG Export Plug-In . SVG Version: 6.00 Build 0)  -->
<svg version="1.1" xmlns="http://www.w3.org/2000/svg" xmlns:xlink="http://www.w3.org/1999/xlink" x="0px" y="0px"
	 viewBox="0 0 450 500" style="enable-background:new 0 0 450 500;" xml:space="preserve">
<style type="text/css">
	.st0{fill:#00AAFD;}
	.st1{opacity:0.11;}
	.st2{fill:#FAFDEC;}
	.st3{opacity:0.1;}
	.st4{fill:#593E71;}
	.st5{opacity:0.37;}
	.st6{display:none;}
	.st7{display:inline;}
</style>
<g id="Layer_1">
	<g>
		<path class="st0" d="M146.6,379.9c-40.7,0-73.6,80.4-73.6,4.4c0-45.2,57.1-137.7,73.6-137.7C163.3,246.6,187.3,379.9,146.6,379.9z
			"/>
	</g>
	<g>
		<path class="st0" d="M290.6,380.1c40.7,0,73.6,80.4,73.6,4.4c0-45.2-57.1-137.7-73.6-137.7C273.9,246.8,249.9,380.1,290.6,380.1z"
			/>
	</g>
	<g class="st1">
		<path d="M290.5,380.1c40.7,0,73.6,80.4,73.6,4.4c0-45.2-57.1-137.7-73.6-137.7C273.9,246.8,249.9,380.1,290.5,380.1z"/>
	</g>
	<g>
		<path class="st2" d="M191.3,414c10.9,0.8,21.9,1.2,33.1,1.2c11.6,0,23.1-0.5,34.3-1.3C295.7,388.7,322,323.5,322,247
			c0-58-75.1-178-97-178c-21.7,0-97,119.5-97,178C128,323.6,154.4,388.9,191.3,414z"/>
	</g>
	<g>
		<path class="st0" d="M225.6,100.1c14.3,0,28.1,4,40.8,11.2c-16.7-24.8-32.8-42.2-41.1-42.2c-8.4,0-24.7,17.8-41.6,43
			C196.6,104.4,210.8,100.1,225.6,100.1z"/>
	</g>
	<g class="st3">
		<path d="M191.3,413.5c10.9,0.8,21.9,1.2,33.1,1.2c11.6,0,23.1-0.5,34.3-1.3C295.7,388.2,322,323,322,246.5c0-58-75.1-178-97-178
			c-21.7,0,65.8,177.4,53,234.5C251,424,154.3,388.4,191.3,413.5z"/>
	</g>
	<circle class="st0" cx="227" cy="198" r="35"/>
	<circle class="st4" cx="227.4" cy="197.4" r="26.6"/>
	<path class="st5" d="M253,198c-0.3,14-11.9,25-25.9,24.7s10.8-10.1,11.1-24s-23.8-26.9-9.9-26.5S253.3,184,253,198z"/>
	<g>
		<path class="st4" d="M191.1,414c10.8,0.8,21.8,1.2,32.9,1.2c11.8,0,23.4-0.5,34.8-1.4c5.4-3.7,10.5-8.2,15.4-13.5
			c-16.1,1.8-32.7,2.7-49.6,2.7c-16.7,0-33.1-0.9-49.1-2.7C180.5,405.8,185.7,410.3,191.1,414z"/>
	</g>
</g>
<g id="fire" class="st6">
	<path class="st7" d="M99,341c6.6-2.9,34-15.2,53,0c12.9,10.4,14.2,27.5,15,38c0.5,6.7,0.2,15.6-2,16c-4.1,0.8-10.1-29.6-17-29
		c-3.1,0.3-6.1,6.9-6,13c0.2,14.3,16.7,17.5,22,32c7.4,20.1-12.1,47.4-19,46c-5.6-1.2,0.2-20.7-13-33c-9.5-8.9-18.1-3.9-24-12
		c-9.1-12.5,5.4-31.7-4-40c-3-2.6-7.8-3.7-10-2c-4,3.1,1.5,14.4,0,15c-1.9,0.8-17.2-15.9-12-30C84.7,347.5,91.9,344.2,99,341z"/>
</g>
</svg>
