<?xml version="1.0" encoding="utf-8"?>
<!-- Generator: Adobe Illustrator 24.2.3, SVG Export Plug-In . SVG Version: 6.00 Build 0)  -->
<svg version="1.1" id="Layer_1" xmlns="http://www.w3.org/2000/svg" xmlns:xlink="http://www.w3.org/1999/xlink" x="0px" y="0px"
	 viewBox="0 0 1920 1080" style="enable-background:new 0 0 1920 1080;" xml:space="preserve">
<style type="text/css">
	.st0{fill:#EF930E;}
	.st1{fill:#E1C140;}
	.st2{fill:#00AAFD;}
	.st3{opacity:0.11;}
	.st4{fill:#FAFDEC;}
	.st5{opacity:0.1;}
	.st6{fill:#593E71;}
	.st7{opacity:0.37;}
</style>
<path class="st0" d="M1454.5,385c3.4-1.5,17.7-7.9,27.6,0c6.7,5.4,7.4,14.3,7.8,19.8c0.3,3.5,0.1,8.1-1,8.3
	c-2.1,0.4-5.3-15.4-8.9-15.1c-1.6,0.1-3.2,3.6-3.1,6.8c0.1,7.4,8.7,9.1,11.5,16.7c3.9,10.5-6.3,24.7-9.9,24
	c-2.9-0.6,0.1-10.8-6.8-17.2c-5-4.6-9.4-2-12.5-6.3c-4.7-6.5,2.8-16.5-2.1-20.8c-1.5-1.4-4.1-1.9-5.2-1c-2.1,1.6,0.8,7.5,0,7.8
	c-1,0.4-8.9-8.3-6.3-15.6C1447,388.4,1450.8,386.7,1454.5,385z"/>
<path class="st1" d="M1456.2,388.2c7.7-0.9,7.3-4.2,12.7-4c5.5,0.2,10,3.8,11.1,4.8c1.4,1.2,2.5,2.3,3.2,3.2c1.4,2,2.1,4.5,1.6,4.8
	c-0.6,0.4-2.3-3.1-4.8-3.2c-2.5,0-4.7,3.3-5.6,5.6c-2,4.9-0.5,10.9,2.4,15.1c3.8,5.5,7.4,4.4,8.8,8.8c1,3.5-0.5,7.1-3.2,13.5
	c-0.4,1-1.1,2.5-1.6,2.4c-1.1-0.2,1.1-7-2.4-11.9c-1.2-1.8-2.9-2.8-6.4-4.8c-5.7-3.3-7.4-2.6-8.8-4.8c-1.2-1.9-0.8-4.7,0-10.3
	c0.9-6,2-7.5,0.8-9.6c-1.6-2.7-5.4-3.1-6.4-3.2c-2.5-0.2-6.3,0.4-7.2,2.4c-0.3,0.7-0.2,1.4-0.8,3.2c-0.4,1.1-0.6,1.6-0.8,1.6
	c-0.9,0-1.6-8.8-1.6-8.8c0-0.7,0.2-1.6,0.8-2.4C1449.7,388.4,1452.9,388.6,1456.2,388.2z"/>
<g>
	<path class="st2" d="M1435.5,371.9c-16.5,0-29.9,32.7-29.9,1.8c0-18.4,23.2-56,29.9-56C1442.3,317.7,1452.1,371.9,1435.5,371.9z"/>
</g>
<g>
	<path class="st2" d="M1494.1,372c16.5,0,29.9,32.7,29.9,1.8c0-18.4-23.2-56-29.9-56C1487.3,317.8,1477.5,372,1494.1,372z"/>
</g>
<g class="st3">
	<path d="M1494,372c16.5,0,29.9,32.7,29.9,1.8c0-18.4-23.2-56-29.9-56C1487.3,317.8,1477.5,372,1494,372z"/>
</g>
<g>
	<path class="st4" d="M1453.7,385.8c4.4,0.3,8.9,0.5,13.5,0.5c4.7,0,9.4-0.2,14-0.5c15-10.2,25.7-36.7,25.7-67.8
		c0-23.6-30.5-72.4-39.4-72.4c-8.8,0-39.4,48.6-39.4,72.4C1428,349,1438.7,375.6,1453.7,385.8z"/>
</g>
<g>
	<path class="st2" d="M1467.6,258.2c5.8,0,11.4,1.6,16.6,4.6c-6.8-10.1-13.3-17.2-16.7-17.2c-3.4,0-10,7.2-16.9,17.5
		C1455.9,259.9,1461.6,258.2,1467.6,258.2z"/>
</g>
<g class="st5">
	<path d="M1453.7,385.6c4.4,0.3,8.9,0.5,13.5,0.5c4.7,0,9.4-0.2,14-0.5c15-10.2,25.7-36.7,25.7-67.8c0-23.6-30.5-72.4-39.4-72.4
		c-8.8,0,26.7,72.1,21.6,95.3C1478,389.8,1438.7,375.4,1453.7,385.6z"/>
</g>
<circle class="st2" cx="1468.2" cy="298" r="14.2"/>
<circle class="st6" cx="1468.4" cy="297.7" r="10.8"/>
<path class="st7" d="M1478.8,298c-0.1,5.7-4.9,10.2-10.5,10c-5.7-0.1,4.4-4.1,4.5-9.8c0.1-5.7-9.7-10.9-4-10.8
	C1474.4,287.6,1478.9,292.3,1478.8,298z"/>
<g>
	<path class="st6" d="M1453.6,385.8c4.4,0.3,8.9,0.5,13.4,0.5c4.8,0,9.5-0.2,14.2-0.6c2.2-1.5,4.3-3.3,6.2-5.5
		c-6.5,0.7-13.3,1.1-20.2,1.1c-6.8,0-13.5-0.4-19.9-1.1C1449.3,382.4,1451.4,384.3,1453.6,385.8z"/>
</g>
</svg>
