<svg xmlns="http://www.w3.org/2000/svg" viewBox="0 0 251.87 229.68"><defs><style>.cls-1{stroke:#000;stroke-miterlimit:10;stroke-width:2px;}</style></defs><g id="Layer_2" data-name="Layer 2"><g id="Layer_1-2" data-name="Layer 1"><path class="cls-1" d="M101.5,171a76.18,76.18,0,0,0,17.75,5.68,75.36,75.36,0,0,0,46.62-6,72.53,72.53,0,0,0,11.74-7c1.87-1.39,3.73-2.84,5.52-4.42.93-.75,1.76-1.62,2.65-2.44.42-.42.92-.84,1.29-1.24l1.15-1.21a56,56,0,0,0,13.25-23.78,57.22,57.22,0,0,0,.28-28.8,59.52,59.52,0,0,0-2.22-7.1A57.87,57.87,0,0,0,196.37,88a58.47,58.47,0,0,0-8.85-12.24c-.43-.5-.85-.9-1.26-1.31s-.81-.84-1.25-1.22l-1.29-1.17L182.37,71a49,49,0,0,0-5.78-3.88,44.87,44.87,0,0,0-13.11-4.8,46.71,46.71,0,0,0-14.06-.62,47.49,47.49,0,0,0-25.31,11l-1.31,1.15c-.46.38-.75.76-1.15,1.13L120.53,76l-.57.56-.49.62c-.63.83-1.37,1.6-2,2.45s-1.14,1.74-1.73,2.6a38.59,38.59,0,0,0-5,23.62,42.07,42.07,0,0,0,3,11.3c.35.89.84,1.7,1.24,2.56.21.43.42.85.62,1.28s.5.78.75,1.18q.73,1.2,1.47,2.37l1.69,2.17.83,1.09.86.92.85.93a7.4,7.4,0,0,0,.89.88c.62.54,1.23,1.08,1.83,1.64s1.31.94,2,1.42a32.75,32.75,0,0,0,8.19,4.19l1,.38c.35.11.7.19,1.05.28L139,139c.68.14,1.36.24,2,.36a15.71,15.71,0,0,0,2,.3,34,34,0,0,0,3.83.23,29.69,29.69,0,0,0,3.56-.08,57.41,57.41,0,0,0,6.16-.75c1.77-.42,3.42-.63,4.7-1a19.05,19.05,0,0,1,3.25-.46,1.91,1.91,0,0,1,1.67.49,1.93,1.93,0,0,1,0,1.81,10.71,10.71,0,0,1-2,3,25.91,25.91,0,0,1-4.16,3.83,37.44,37.44,0,0,1-6.78,3.85,31.28,31.28,0,0,1-4.42,1.64,38.83,38.83,0,0,1-5.1,1.24,23,23,0,0,1-2.8.39c-1,.09-1.95.21-3,.27H135c-.53,0-1.07,0-1.6,0l-1.62-.17A46.08,46.08,0,0,1,118,150.5c-1.16-.51-2.37-1-3.55-1.6l-3.48-2a17.46,17.46,0,0,1-1.72-1.12l-1.69-1.22-1.7-1.25L104.3,142l-3.14-2.81c-1-1-1.94-2.09-2.92-3.17-.49-.55-1-1.08-1.47-1.65l-1.34-1.79c-.87-1.21-1.83-2.4-2.64-3.7A64.76,64.76,0,0,1,85,111.3c-.4-1.62-.8-3.27-1.17-4.94s-.5-3.4-.73-5.13a22.58,22.58,0,0,1-.21-2.61c0-.88-.07-1.77-.11-2.65a43.83,43.83,0,0,1,.1-5.37,66.37,66.37,0,0,1,5.08-21.81q1.23-2.62,2.55-5.27c.92-1.74,2-3.39,3.06-5.09l.8-1.27.9-1.2,1.83-2.39c.62-.78,1.23-1.64,1.88-2.35l1.93-2.16a80.5,80.5,0,0,1,18.66-14.91,82,82,0,0,1,23.23-9,83.61,83.61,0,0,1,51.48,5.08,88.51,88.51,0,0,1,12,6.46l2.83,1.91,2.74,2c.93.67,1.79,1.42,2.67,2.14s1.76,1.47,2.54,2.2a101.4,101.4,0,0,1,28.66,43.78,104,104,0,0,1,5,26.07,104.13,104.13,0,0,1-24,73.07l-2.07,2.43c-.69.81-1.37,1.49-2.06,2.25-1.39,1.46-2.73,2.95-4.2,4.31-2.85,2.82-5.85,5.45-8.92,8A122.8,122.8,0,0,1,190,217.71a125.75,125.75,0,0,1-80.25,13.18,123.2,123.2,0,0,1-31.36-9.62,120.89,120.89,0,0,1-24.71-15.13l-2.76-2.26-1.37-1.13-1.31-1.18c-1.73-1.58-3.54-3.17-5.06-4.76S40,193.67,38.54,192l-4.4-5a146.65,146.65,0,0,1-14.77-21.24A135.47,135.47,0,0,1,9.06,143.36a142.14,142.14,0,0,1-6-22.55A146.61,146.61,0,0,1,1,99.08a130.35,130.35,0,0,1,5.1-38.2A115.41,115.41,0,0,1,18.66,32.32a89.9,89.9,0,0,1,14.54-18A53.31,53.31,0,0,1,39.79,9,28.06,28.06,0,0,1,45.36,6c3.35-1.32,5.76-1.34,7.22-.12,3,2.51,1.58,9.41-1.12,19.86C50.18,31,48.55,37.11,47.22,44.15A151.49,151.49,0,0,0,44.6,67.71a128,128,0,0,0,2.08,27.46,133.49,133.49,0,0,0,3.72,14.52,119,119,0,0,0,5.85,14.49,101.89,101.89,0,0,0,8.14,14,112.85,112.85,0,0,0,10.46,13.12l3,3.06c1,1,2.11,2,3.15,3s2.1,1.84,3.13,2.74l.77.67.82.61,1.61,1.25A76.43,76.43,0,0,0,101.5,171Z" transform="translate(0 -3.94)"/></g></g></svg>