<svg xmlns="http://www.w3.org/2000/svg" viewBox="0 0 450 497"><defs><style>.cls-1{fill:#f9f9f9;}.cls-2{fill:#3e3fa5;}</style></defs><g id="Layer_3" data-name="Layer 3"><path class="cls-1" d="M118.43,329.61c35.92,23.95,51.57,59.89,81,56,21.71-2.88,22.3-23.69,51-35,35.91-14.16,53.89,11,91,4,51.4-9.7,49.09-64.11,93-72a29.57,29.57,0,0,1,15.67.94V3H0V303.21C39.08,298.5,85.22,307.47,118.43,329.61Z" transform="translate(0 -3)"/><path class="cls-2" d="M434.33,282.63c-43.88,7.87-41.57,62.28-93,72-37.08,7-55.06-18.16-91-4-28.68,11.3-29.27,32.11-51,35-29.41,3.9-45.06-32-81-56C85.22,307.47,39.08,298.5,0,303.21V500H450V283.57A29.57,29.57,0,0,0,434.33,282.63Z" transform="translate(0 -3)"/></g></svg>